<svg xmlns="http://www.w3.org/2000/svg" viewBox="0 0 256 160" width="256" height="160" role="img" aria-labelledby="cloudflareTitle cloudflareDesc">
  <title id="cloudflareTitle">Cloudflare Logo</title>
  <desc id="cloudflareDesc">Orange cloud over sun icon inspired by the Cloudflare brand.</desc>
  <defs>
    <linearGradient id="cfCloud" x1="0%" y1="50%" x2="100%" y2="50%">
      <stop offset="0%" stop-color="#ff8a00"/>
      <stop offset="45%" stop-color="#ff5800"/>
      <stop offset="100%" stop-color="#ffa53a"/>
    </linearGradient>
    <linearGradient id="cfSun" x1="0%" y1="50%" x2="100%" y2="50%">
      <stop offset="0%" stop-color="#ffce5a"/>
      <stop offset="100%" stop-color="#ff9f1c"/>
    </linearGradient>
  </defs>
  <rect width="256" height="160" rx="26" fill="#ffffff"/>
  <g transform="translate(32 36)">
    <path d="M150 66c0-30-21-54-48-54-20 0-38 13-45 32a44 44 0 0 0-11-1C21.5 43 0 64 0 90h210c0-13-10-24-24-24-7 0-13 2-18 6-4-3-10-6-18-6z" fill="url(#cfCloud)"/>
    <path d="M114 12c27 0 48 24 48 54 0 3 0 5-0.3 8H76c-1-3-1-5-1-8 0-30 23-54 39-54z" fill="url(#cfSun)"/>
    <path d="M32 94h60a6 6 0 0 1 0 12H32a6 6 0 0 1 0-12z" fill="#ffffff" opacity="0.85"/>
  </g>
</svg>
