<svg xmlns="http://www.w3.org/2000/svg" width="220" height="220" viewBox="0 0 220 220" role="img" aria-labelledby="title desc">
  <title id="title">GitHub Logo</title>
  <desc id="desc">Simplified GitHub mark for Preferred Partners.</desc>
  <rect width="220" height="220" rx="36" fill="#050505"/>
  <circle cx="110" cy="90" r="70" fill="#ffffff"/>
  <path d="M110 32c-33 0-60 25-60 56 0 25 16 46 38 53v34c0 6 5 10 10 10s10-4 10-10v-30h24v30c0 6 5 10 10 10s10-4 10-10v-34c22-7 38-28 38-53 0-31-27-56-60-56Z" fill="#050505"/>
  <circle cx="80" cy="86" r="8" fill="#ffffff"/>
  <circle cx="140" cy="86" r="8" fill="#ffffff"/>
  <path d="M92 120c10 8 26 8 36 0" stroke="#ffffff" stroke-width="8" stroke-linecap="round" fill="none"/>
</svg>
